# xmcd
#
# Track frame offsets: 
#        150
#        15226
#        28798
#        44359
#        56297
#        68652
#        83969
#        98545
#        113342
#        127569
#        138104
#        150381
#        162275
#        176298
#        190992
#
# Disc length: 2706 seconds
#
# Revision: 0
# Processed by: cddbd v1.5.2PL0 Copyright (c) Steve Scherf et al.
# Submitted via: ExactAudioCopy v0.95b4
#
DISCID=9f0a900f
DTITLE=Various Artist - Just Blues
DYEAR=2007
DGENRE=Blues
TTITLE0=T-Bone Walker - I Got A Break, Baby
TTITLE1=Big Joe Williams - Meet Me Around The corner
TTITLE2=Big Bill Broonzy - Friendless Blues
TTITLE3=Brownie McGhee - Not Guilty Blues
TTITLE4=Big Joe Turner - I Got My Discharge Papers
TTITLE5=Memphis Slim - Beer Drinking Woman
TTITLE6=Leadbelly - Easy rider
TTITLE7=Hot Lips Page - My Fighting Gal
TTITLE8=Arthur 'Big Boy' Crudup - My Mamma Don't allow me
TTITLE9=Robert Johnson - Honeymoon Blues
TTITLE10=Blind Boy Fuller and Sonny Terry - Pistol Slapper Blues
TTITLE11=Sleepy John Estes - Clean Up At home
TTITLE12=Lonnie Johnson - Life Saver Blues
TTITLE13=Arthur 'Big Boy' Crudup - That's Your Rad Wagon
TTITLE14=Bukka White - Parchment Farm Blues
EXTD=
EXTT0=
EXTT1=
EXTT2=
EXTT3=
EXTT4=
EXTT5=
EXTT6=
EXTT7=
EXTT8=
EXTT9=
EXTT10=
EXTT11=
EXTT12=
EXTT13=
EXTT14=
PLAYORDER=
